<?xml version="1.0" encoding="UTF-8"?><svg xmlns="http://www.w3.org/2000/svg" xmlns:xlink="http://www.w3.org/1999/xlink" fill-opacity="1" color-rendering="auto" color-interpolation="auto" text-rendering="auto" stroke="black" stroke-linecap="square" width="877" stroke-miterlimit="10" shape-rendering="auto" stroke-opacity="1" fill="black" stroke-dasharray="none" font-weight="normal" stroke-width="1" height="894" font-family="'Dialog'" font-style="normal" stroke-linejoin="miter" font-size="12px" stroke-dashoffset="0" image-rendering="auto">
  <!--Generated by ySVG 2.5-->
  <defs id="genericDefs"/>
  <g>
    <defs id="defs1">
      <clipPath clipPathUnits="userSpaceOnUse" id="clipPath1">
        <path d="M0 0 L877 0 L877 894 L0 894 L0 0 Z"/>
      </clipPath>
      <clipPath clipPathUnits="userSpaceOnUse" id="clipPath2">
        <path d="M-43 69 L834 69 L834 963 L-43 963 L-43 69 Z"/>
      </clipPath>
    </defs>
    <g fill="white" text-rendering="geometricPrecision" shape-rendering="geometricPrecision" transform="translate(43,-69)" stroke="white">
      <rect x="-43" width="877" height="894" y="69" clip-path="url(#clipPath2)" stroke="none"/>
    </g>
    <g transform="matrix(1,0,0,1,43,-69)" fill-opacity="0.5176" fill="rgb(202,236,255)" text-rendering="geometricPrecision" shape-rendering="geometricPrecision" stroke="rgb(202,236,255)" stroke-opacity="0.5176">
      <rect x="281.0399" y="84.0069" clip-path="url(#clipPath2)" width="227.6006" rx="4" ry="4" height="156.5547" stroke="none"/>
    </g>
    <g fill="rgb(153,204,255)" text-rendering="geometricPrecision" shape-rendering="geometricPrecision" transform="matrix(1,0,0,1,43,-69)" stroke="rgb(153,204,255)">
      <rect x="281.0399" width="227.6006" height="27.5547" y="84.0069" clip-path="url(#clipPath2)" stroke="none"/>
    </g>
    <g font-size="20px" stroke-linecap="butt" transform="matrix(1,0,0,1,43,-69)" text-rendering="geometricPrecision" font-family="sans-serif" shape-rendering="geometricPrecision" stroke-miterlimit="1.45">
      <text x="372.1351" xml:space="preserve" y="105.3428" clip-path="url(#clipPath2)" stroke="none">View</text>
    </g>
    <g stroke-linecap="round" transform="matrix(1,0,0,1,43,-69)" stroke-dashoffset="2" fill="rgb(102,102,153)" text-rendering="geometricPrecision" shape-rendering="geometricPrecision" stroke-dasharray="0,4" stroke="rgb(102,102,153)" stroke-miterlimit="1.45">
      <rect x="281.0399" y="84.0069" clip-path="url(#clipPath2)" fill="none" width="227.6006" rx="4" ry="4" height="156.5547"/>
    </g>
    <g fill="white" text-rendering="geometricPrecision" shape-rendering="geometricPrecision" transform="matrix(1,0,0,1,43,-69)" stroke="white">
      <rect x="296.0399" y="126.5616" clip-path="url(#clipPath2)" width="197" rx="4" ry="4" height="99" stroke="none"/>
    </g>
    <g font-size="16px" stroke-linecap="butt" transform="matrix(1,0,0,1,43,-69)" text-rendering="geometricPrecision" font-family="sans-serif" shape-rendering="geometricPrecision" stroke-miterlimit="1.45">
      <text x="325.7391" xml:space="preserve" y="182.1085" clip-path="url(#clipPath2)" stroke="none">React Component</text>
      <rect x="296.0399" y="126.5616" clip-path="url(#clipPath2)" fill="none" width="197" rx="4" ry="4" height="99"/>
    </g>
    <g transform="matrix(1,0,0,1,43,-69)" fill-opacity="0.502" fill="rgb(202,236,255)" text-rendering="geometricPrecision" shape-rendering="geometricPrecision" stroke="rgb(202,236,255)" stroke-opacity="0.502">
      <rect x="26.9603" y="376.4042" clip-path="url(#clipPath2)" width="284.123" rx="4" ry="4" height="190.2187" stroke="none"/>
    </g>
    <g fill="rgb(153,204,255)" text-rendering="geometricPrecision" shape-rendering="geometricPrecision" transform="matrix(1,0,0,1,43,-69)" stroke="rgb(153,204,255)">
      <rect x="26.9603" width="284.123" height="27.5547" y="376.4042" clip-path="url(#clipPath2)" stroke="none"/>
    </g>
    <g font-size="20px" stroke-linecap="butt" transform="matrix(1,0,0,1,43,-69)" text-rendering="geometricPrecision" font-family="sans-serif" shape-rendering="geometricPrecision" stroke-miterlimit="1.45">
      <text x="128.3138" xml:space="preserve" y="397.7401" clip-path="url(#clipPath2)" stroke="none">UseCase</text>
    </g>
    <g stroke-linecap="round" transform="matrix(1,0,0,1,43,-69)" stroke-dashoffset="2" fill="rgb(102,102,153)" text-rendering="geometricPrecision" shape-rendering="geometricPrecision" stroke-dasharray="0,4" stroke="rgb(102,102,153)" stroke-miterlimit="1.45">
      <rect x="26.9603" y="376.4042" clip-path="url(#clipPath2)" fill="none" width="284.123" rx="4" ry="4" height="190.2187"/>
    </g>
    <g fill="white" text-rendering="geometricPrecision" shape-rendering="geometricPrecision" transform="matrix(1,0,0,1,43,-69)" stroke="white">
      <rect x="49.7929" y="489.9589" clip-path="url(#clipPath2)" width="66.7314" rx="4" ry="4" height="57" stroke="none"/>
    </g>
    <g text-rendering="geometricPrecision" stroke-miterlimit="1.45" shape-rendering="geometricPrecision" font-family="sans-serif" transform="matrix(1,0,0,1,43,-69)" stroke-linecap="butt">
      <text x="58.7338" xml:space="preserve" y="522.994" clip-path="url(#clipPath2)" stroke="none">UseCase</text>
      <rect x="49.7929" y="489.9589" clip-path="url(#clipPath2)" fill="none" width="66.7314" rx="4" ry="4" height="57"/>
    </g>
    <g fill="white" text-rendering="geometricPrecision" shape-rendering="geometricPrecision" transform="matrix(1,0,0,1,43,-69)" stroke="white">
      <rect x="55.6586" y="412.6249" clip-path="url(#clipPath2)" width="56" rx="4" ry="4" height="54" stroke="none"/>
    </g>
    <g text-rendering="geometricPrecision" stroke-miterlimit="1.45" shape-rendering="geometricPrecision" font-family="sans-serif" transform="matrix(1,0,0,1,43,-69)" stroke-linecap="butt">
      <text x="62.5355" xml:space="preserve" y="444.1601" clip-path="url(#clipPath2)" stroke="none">Factory</text>
      <rect x="55.6586" y="412.6249" clip-path="url(#clipPath2)" fill="none" width="56" rx="4" ry="4" height="54"/>
    </g>
    <g fill="white" text-rendering="geometricPrecision" shape-rendering="geometricPrecision" transform="matrix(1,0,0,1,43,-69)" stroke="white">
      <rect x="138.2929" y="490.2909" clip-path="url(#clipPath2)" width="65.39" rx="4" ry="4" height="57" stroke="none"/>
    </g>
    <g text-rendering="geometricPrecision" stroke-miterlimit="1.45" shape-rendering="geometricPrecision" font-family="sans-serif" transform="matrix(1,0,0,1,43,-69)" stroke-linecap="butt">
      <text x="146.563" xml:space="preserve" y="523.326" clip-path="url(#clipPath2)" stroke="none">UseCase</text>
      <rect x="138.2929" y="490.2909" clip-path="url(#clipPath2)" fill="none" width="65.39" rx="4" ry="4" height="57"/>
    </g>
    <g fill="white" text-rendering="geometricPrecision" shape-rendering="geometricPrecision" transform="matrix(1,0,0,1,43,-69)" stroke="white">
      <rect x="144.1586" y="412.9569" clip-path="url(#clipPath2)" width="56" rx="4" ry="4" height="54" stroke="none"/>
    </g>
    <g text-rendering="geometricPrecision" stroke-miterlimit="1.45" shape-rendering="geometricPrecision" font-family="sans-serif" transform="matrix(1,0,0,1,43,-69)" stroke-linecap="butt">
      <text x="151.0355" xml:space="preserve" y="444.4921" clip-path="url(#clipPath2)" stroke="none">Factory</text>
      <rect x="144.1586" y="412.9569" clip-path="url(#clipPath2)" fill="none" width="56" rx="4" ry="4" height="54"/>
    </g>
    <g fill="white" text-rendering="geometricPrecision" shape-rendering="geometricPrecision" transform="matrix(1,0,0,1,43,-69)" stroke="white">
      <rect x="227.7929" y="490.6229" clip-path="url(#clipPath2)" width="65.39" rx="4" ry="4" height="57" stroke="none"/>
    </g>
    <g text-rendering="geometricPrecision" stroke-miterlimit="1.45" shape-rendering="geometricPrecision" font-family="sans-serif" transform="matrix(1,0,0,1,43,-69)" stroke-linecap="butt">
      <text x="236.063" xml:space="preserve" y="523.6581" clip-path="url(#clipPath2)" stroke="none">UseCase</text>
      <rect x="227.7929" y="490.6229" clip-path="url(#clipPath2)" fill="none" width="65.39" rx="4" ry="4" height="57"/>
    </g>
    <g fill="white" text-rendering="geometricPrecision" shape-rendering="geometricPrecision" transform="matrix(1,0,0,1,43,-69)" stroke="white">
      <rect x="233.6586" y="413.289" clip-path="url(#clipPath2)" width="56" rx="4" ry="4" height="54" stroke="none"/>
    </g>
    <g text-rendering="geometricPrecision" stroke-miterlimit="1.45" shape-rendering="geometricPrecision" font-family="sans-serif" transform="matrix(1,0,0,1,43,-69)" stroke-linecap="butt">
      <text x="240.5355" xml:space="preserve" y="444.8241" clip-path="url(#clipPath2)" stroke="none">Factory</text>
      <rect x="233.6586" y="413.289" clip-path="url(#clipPath2)" fill="none" width="56" rx="4" ry="4" height="54"/>
    </g>
    <g fill="rgb(255,204,0)" text-rendering="geometricPrecision" shape-rendering="geometricPrecision" transform="matrix(1,0,0,1,43,-69)" stroke="rgb(255,204,0)">
      <circle r="37.5" clip-path="url(#clipPath2)" cx="397.0399" cy="319.0616" stroke="none"/>
    </g>
    <g font-size="16px" stroke-linecap="butt" transform="matrix(1,0,0,1,43,-69)" text-rendering="geometricPrecision" font-family="sans-serif" shape-rendering="geometricPrecision" stroke-miterlimit="1.45">
      <text x="366.2782" xml:space="preserve" y="325.1085" clip-path="url(#clipPath2)" stroke="none">Context</text>
      <circle fill="none" r="37.5" clip-path="url(#clipPath2)" cx="397.0399" cy="319.0616"/>
    </g>
    <g text-rendering="geometricPrecision" stroke-miterlimit="1.45" shape-rendering="geometricPrecision" transform="matrix(1,0,0,1,43,-69)" stroke-linecap="butt">
      <path fill="none" d="M82.1586 466.5977 L82.1586 474.0419 L81.6586 474.0419 L81.6586 475.5419 L81.6586 477.7674 L81.6586 477.7674 L76.9086 474.9174 L83.1586 489.9174 L89.4086 474.9174 L84.6586 477.7674 L84.6586 477.7674 L84.6586 477.0419 L85.1586 477.0419 L85.1586 475.5419 L85.1586 466.5977 Z" clip-path="url(#clipPath2)"/>
    </g>
    <g text-rendering="geometricPrecision" stroke-miterlimit="1.45" shape-rendering="geometricPrecision" transform="matrix(1,0,0,1,43,-69)" stroke-linecap="butt">
      <path fill="none" d="M170.6586 466.9297 L170.6586 474.3739 L170.1814 474.3739 L170.1588 475.8509 L170.124 478.0775 L170.124 478.0775 L165.4191 475.1536 L165.4191 475.1536 L171.4339 490.2495 L177.9175 475.3489 L173.1236 478.1244 L173.1236 478.1244 L173.1353 477.3739 L173.6586 477.3739 L173.6586 475.8739 L173.6586 466.9297 Z" clip-path="url(#clipPath2)"/>
    </g>
    <g text-rendering="geometricPrecision" stroke-miterlimit="1.45" shape-rendering="geometricPrecision" transform="matrix(1,0,0,1,43,-69)" stroke-linecap="butt">
      <path fill="none" d="M260.1586 467.2618 L260.1586 474.706 L259.6814 474.706 L259.6588 476.183 L259.624 478.4095 L254.9191 475.4856 L260.9339 490.5815 L267.4175 475.681 L262.6236 478.4564 L262.6236 478.4564 L262.6353 477.706 L263.1586 477.706 L263.1586 476.206 L263.1586 467.2618 Z" clip-path="url(#clipPath2)"/>
    </g>
    <g stroke-linecap="butt" transform="matrix(1,0,0,1,43,-69)" fill="blue" text-rendering="geometricPrecision" shape-rendering="geometricPrecision" stroke="blue" stroke-miterlimit="1.45">
      <path fill="none" d="M391.4116 240.0363 L383.6421 260.0175 L383.4816 260.4298 L383.5706 260.8633 L385.5936 270.7257 L385.5936 270.7257 L380.3678 268.8883 L389.5045 282.3265 L392.6129 266.3765 L388.5324 270.1229 L388.5324 270.1229 L386.5981 260.6932 L386.5981 260.6932 L394.2073 241.1245 L391.4116 240.0363 Z" clip-path="url(#clipPath2)"/>
    </g>
    <g stroke-linecap="butt" transform="matrix(1,0,0,1,43,-69)" fill="blue" text-rendering="geometricPrecision" shape-rendering="geometricPrecision" stroke="blue" stroke-miterlimit="1.45">
      <path fill="none" d="M168.8771 315.9908 L168.8633 317.4862 L168.456 364.2581 L168.456 364.2581 L163.731 361.3669 L169.8501 376.4207 L176.2305 361.4757 L171.4559 364.2843 L171.4559 364.2843 L171.8502 319.0103 L171.8502 319.0103 L359.5316 320.3032 L359.55 317.3033 L170.3725 316 L168.8771 315.9908 Z" clip-path="url(#clipPath2)"/>
    </g>
    <g stroke-linecap="butt" transform="matrix(1,0,0,1,43,-69)" fill="red" text-rendering="geometricPrecision" shape-rendering="geometricPrecision" stroke="red" stroke-miterlimit="1.45">
      <path fill="none" d="M410.4486 240.5418 L407.2533 256.4745 L411.3541 252.7505 L413.4923 263.4712 L407.1817 282.929 L410.036 283.8525 L416.4671 264.0233 L416.5873 263.6519 L416.5111 263.269 L414.2962 252.1637 L414.2962 252.1637 L419.5119 254.0295 L410.4486 240.5418 Z" clip-path="url(#clipPath2)"/>
    </g>
    <g transform="matrix(1,0,0,1,43,-69)" fill-opacity="0.5176" fill="rgb(202,236,255)" text-rendering="geometricPrecision" shape-rendering="geometricPrecision" stroke="rgb(202,236,255)" stroke-opacity="0.5176">
      <rect x="-27.2598" y="683.4453" clip-path="url(#clipPath2)" width="155.2598" rx="4" ry="4" height="133.9615" stroke="none"/>
    </g>
    <g fill="rgb(153,204,255)" text-rendering="geometricPrecision" shape-rendering="geometricPrecision" transform="matrix(1,0,0,1,43,-69)" stroke="rgb(153,204,255)">
      <rect x="-27.2598" width="155.2598" height="27.5547" y="683.4453" clip-path="url(#clipPath2)" stroke="none"/>
    </g>
    <g font-size="20px" stroke-linecap="butt" transform="matrix(1,0,0,1,43,-69)" text-rendering="geometricPrecision" font-family="sans-serif" shape-rendering="geometricPrecision" stroke-miterlimit="1.45">
      <text x="12.7822" xml:space="preserve" y="704.7812" clip-path="url(#clipPath2)" stroke="none">Domain</text>
    </g>
    <g stroke-linecap="round" transform="matrix(1,0,0,1,43,-69)" stroke-dashoffset="2" fill="rgb(102,102,153)" text-rendering="geometricPrecision" shape-rendering="geometricPrecision" stroke-dasharray="0,4" stroke="rgb(102,102,153)" stroke-miterlimit="1.45">
      <rect x="-27.2598" y="683.4453" clip-path="url(#clipPath2)" fill="none" width="155.2598" rx="4" ry="4" height="133.9615"/>
    </g>
    <g fill="white" text-rendering="geometricPrecision" shape-rendering="geometricPrecision" transform="matrix(1,0,0,1,43,-69)" stroke="white">
      <rect x="-11.5" y="732" clip-path="url(#clipPath2)" width="53" rx="4" ry="4" height="49.4068" stroke="none"/>
    </g>
    <g text-rendering="geometricPrecision" stroke-miterlimit="1.45" shape-rendering="geometricPrecision" font-family="sans-serif" transform="matrix(1,0,0,1,43,-69)" stroke-linecap="butt">
      <text x="-2.707" xml:space="preserve" y="761.2385" clip-path="url(#clipPath2)" stroke="none">Model</text>
      <rect x="-11.5" y="732" clip-path="url(#clipPath2)" fill="none" width="53" rx="4" ry="4" height="49.4068"/>
    </g>
    <g fill="white" text-rendering="geometricPrecision" shape-rendering="geometricPrecision" transform="matrix(1,0,0,1,43,-69)" stroke="white">
      <rect x="53" y="731" clip-path="url(#clipPath2)" width="53" rx="4" ry="4" height="49.4068" stroke="none"/>
    </g>
    <g text-rendering="geometricPrecision" stroke-miterlimit="1.45" shape-rendering="geometricPrecision" font-family="sans-serif" transform="matrix(1,0,0,1,43,-69)" stroke-linecap="butt">
      <text x="61.793" xml:space="preserve" y="760.2385" clip-path="url(#clipPath2)" stroke="none">Model</text>
      <rect x="53" y="731" clip-path="url(#clipPath2)" fill="none" width="53" rx="4" ry="4" height="49.4068"/>
    </g>
    <g text-rendering="geometricPrecision" stroke-miterlimit="1.45" shape-rendering="geometricPrecision" transform="matrix(1,0,0,1,43,-69)" stroke-linecap="butt">
      <path fill="none" d="M150.8747 566.6214 L147.8751 566.6721 L148.8388 626.2677 L39.8633 626.2677 L39.8633 627.7677 L39.8633 671.2871 L39.8633 671.2871 L35.1133 668.4371 L41.3633 683.4371 L47.6133 668.4371 L42.8633 671.2871 L42.8633 671.2871 L42.8633 629.2677 L150.3633 629.2677 L151.8889 629.27 L151.8631 627.7424 L150.8747 566.6214 Z" clip-path="url(#clipPath2)"/>
    </g>
    <g transform="matrix(1,0,0,1,43,-69)" fill-opacity="0.5176" fill="rgb(202,236,255)" text-rendering="geometricPrecision" shape-rendering="geometricPrecision" stroke="rgb(202,236,255)" stroke-opacity="0.5176">
      <rect x="161.5" y="683.4453" clip-path="url(#clipPath2)" width="185.5" rx="4" ry="4" height="133.9615" stroke="none"/>
    </g>
    <g fill="rgb(153,204,255)" text-rendering="geometricPrecision" shape-rendering="geometricPrecision" transform="matrix(1,0,0,1,43,-69)" stroke="rgb(153,204,255)">
      <rect x="161.5" width="185.5" height="27.5547" y="683.4453" clip-path="url(#clipPath2)" stroke="none"/>
    </g>
    <g font-size="20px" stroke-linecap="butt" transform="matrix(1,0,0,1,43,-69)" text-rendering="geometricPrecision" font-family="sans-serif" shape-rendering="geometricPrecision" stroke-miterlimit="1.45">
      <text x="202.7314" xml:space="preserve" y="704.7812" clip-path="url(#clipPath2)" stroke="none">Repository</text>
    </g>
    <g stroke-linecap="round" transform="matrix(1,0,0,1,43,-69)" stroke-dashoffset="2" fill="rgb(102,102,153)" text-rendering="geometricPrecision" shape-rendering="geometricPrecision" stroke-dasharray="0,4" stroke="rgb(102,102,153)" stroke-miterlimit="1.45">
      <rect x="161.5" y="683.4453" clip-path="url(#clipPath2)" fill="none" width="185.5" rx="4" ry="4" height="133.9615"/>
    </g>
    <g fill="white" text-rendering="geometricPrecision" shape-rendering="geometricPrecision" transform="matrix(1,0,0,1,43,-69)" stroke="white">
      <rect x="176.5" y="746" clip-path="url(#clipPath2)" width="70" rx="4" ry="4" height="35" stroke="none"/>
    </g>
    <g text-rendering="geometricPrecision" stroke-miterlimit="1.45" shape-rendering="geometricPrecision" font-family="sans-serif" transform="matrix(1,0,0,1,43,-69)" stroke-linecap="butt">
      <text x="180.5889" xml:space="preserve" y="768.0352" clip-path="url(#clipPath2)" stroke="none">Repository</text>
      <rect x="176.5" y="746" clip-path="url(#clipPath2)" fill="none" width="70" rx="4" ry="4" height="35"/>
    </g>
    <g fill="white" text-rendering="geometricPrecision" shape-rendering="geometricPrecision" transform="matrix(1,0,0,1,43,-69)" stroke="white">
      <rect x="262" y="747" clip-path="url(#clipPath2)" width="70" rx="4" ry="4" height="35" stroke="none"/>
    </g>
    <g text-rendering="geometricPrecision" stroke-miterlimit="1.45" shape-rendering="geometricPrecision" font-family="sans-serif" transform="matrix(1,0,0,1,43,-69)" stroke-linecap="butt">
      <text x="266.0889" xml:space="preserve" y="769.0352" clip-path="url(#clipPath2)" stroke="none">Repository</text>
      <rect x="262" y="747" clip-path="url(#clipPath2)" fill="none" width="70" rx="4" ry="4" height="35"/>
    </g>
    <g text-rendering="geometricPrecision" stroke-miterlimit="1.45" shape-rendering="geometricPrecision" transform="matrix(1,0,0,1,43,-69)" stroke-linecap="butt">
      <path fill="none" d="M181.4854 566.5905 L178.4856 566.6181 L179.0001 625.7815 L179.0137 627.2677 L269.9216 627.2677 L269.9216 671.2904 L269.9216 671.2904 L265.1716 668.4404 L271.4216 683.4404 L277.6716 668.4404 L272.9216 671.2904 L272.9216 671.2904 L272.9216 625.7677 L272.9216 624.2677 L181.987 624.2677 L181.4854 566.5905 Z" clip-path="url(#clipPath2)"/>
    </g>
    <g transform="matrix(1,0,0,1,43,-69)" fill-opacity="0.5176" fill="rgb(202,236,255)" text-rendering="geometricPrecision" shape-rendering="geometricPrecision" stroke="rgb(202,236,255)" stroke-opacity="0.5176">
      <rect x="305.5" y="860.112" clip-path="url(#clipPath2)" width="196" rx="4" ry="4" height="87.5547" stroke="none"/>
    </g>
    <g fill="rgb(153,204,255)" text-rendering="geometricPrecision" shape-rendering="geometricPrecision" transform="matrix(1,0,0,1,43,-69)" stroke="rgb(153,204,255)">
      <rect x="305.5" width="196" height="27.5547" y="860.112" clip-path="url(#clipPath2)" stroke="none"/>
    </g>
    <g font-size="20px" stroke-linecap="butt" transform="matrix(1,0,0,1,43,-69)" text-rendering="geometricPrecision" font-family="sans-serif" shape-rendering="geometricPrecision" stroke-miterlimit="1.45">
      <text x="359.2812" xml:space="preserve" y="881.4479" clip-path="url(#clipPath2)" stroke="none">DataBase</text>
    </g>
    <g stroke-linecap="round" transform="matrix(1,0,0,1,43,-69)" stroke-dashoffset="2" fill="rgb(102,102,153)" text-rendering="geometricPrecision" shape-rendering="geometricPrecision" stroke-dasharray="0,4" stroke="rgb(102,102,153)" stroke-miterlimit="1.45">
      <rect x="305.5" y="860.112" clip-path="url(#clipPath2)" fill="none" width="196" rx="4" ry="4" height="87.5547"/>
    </g>
    <g fill="rgb(255,204,0)" text-rendering="geometricPrecision" shape-rendering="geometricPrecision" transform="matrix(1,0,0,1,43,-69)" stroke="rgb(255,204,0)">
      <path d="M320.5 917.6667 L337.1 902.6667 L469.9 902.6667 L486.5 917.6667 L469.9 932.6667 L337.1 932.6667 Z" fill-rule="evenodd" clip-path="url(#clipPath2)" stroke="none"/>
    </g>
    <g text-rendering="geometricPrecision" stroke-miterlimit="1.45" shape-rendering="geometricPrecision" font-family="sans-serif" transform="matrix(1,0,0,1,43,-69)" stroke-linecap="butt">
      <text x="351.6826" xml:space="preserve" y="922.2018" clip-path="url(#clipPath2)" stroke="none">Memory DataBase</text>
      <path fill="none" d="M320.5 917.6667 L337.1 902.6667 L469.9 902.6667 L486.5 917.6667 L469.9 932.6667 L337.1 932.6667 Z" clip-path="url(#clipPath2)" fill-rule="evenodd"/>
    </g>
    <g text-rendering="geometricPrecision" stroke-miterlimit="1.45" shape-rendering="geometricPrecision" transform="matrix(1,0,0,1,43,-69)" stroke-linecap="butt">
      <path fill="none" d="M252.75 817.384 L252.75 891 L252.75 892.5092 L254.2592 892.5 L293.378 892.2525 L293.378 892.2525 L290.5581 897.0204 L305.5182 890.6756 L290.479 884.5207 L293.359 889.2525 L293.359 889.2525 L255.75 889.4905 L255.75 889.4905 L255.75 817.384 Z" clip-path="url(#clipPath2)"/>
    </g>
    <g text-rendering="geometricPrecision" stroke-miterlimit="1.45" shape-rendering="geometricPrecision" transform="matrix(1,0,0,1,43,-69)" stroke-linecap="butt">
      <path fill="none" d="M403.5 813.6657 L403.4241 813.6696 L398.8885 813.8986 L398.8126 813.9024 L398.7374 813.9139 L394.3328 814.5862 L394.26 814.5972 L394.1864 814.6161 L389.9351 815.7093 L389.8636 815.7275 L389.7923 815.7537 L385.7166 817.2454 L385.6474 817.2707 L385.5811 817.3027 L381.7033 819.1708 L381.6389 819.2017 L381.576 819.2399 L377.9184 821.4619 L377.8573 821.4989 L377.7983 821.5431 L374.3833 824.0969 L374.3261 824.1396 L374.2733 824.1877 L371.1231 827.0508 L371.0703 827.0988 L371.0222 827.1516 L368.1591 830.3019 L368.1111 830.3547 L368.0683 830.4118 L365.5146 833.8268 L365.4717 833.884 L365.4335 833.9469 L363.2115 837.6044 L363.1743 837.6654 L363.1423 837.7318 L361.2742 841.6096 L361.2422 841.676 L361.2169 841.7451 L359.7252 845.8208 L359.6997 845.89 L359.6808 845.9636 L359.1103 848.1823 L359.1103 848.1823 L354.4049 844.6917 L354.4049 844.6917 L359.1598 860.2304 L366.8452 845.9127 L362.2289 848.1005 L362.2289 848.1005 L362.5678 846.7825 L364.0085 842.846 L365.813 839.1002 L365.813 839.1002 L367.9597 835.5665 L370.4274 832.2666 L373.1942 829.2224 L373.1942 829.2224 L376.238 826.4559 L379.5378 823.9884 L379.5378 823.9884 L383.0718 821.8414 L383.0718 821.8414 L386.8174 820.037 L386.8174 820.037 L390.7542 818.5962 L390.7542 818.5962 L394.8603 817.5404 L394.8603 817.5404 L399.1154 816.891 L399.1154 816.891 L403.5 816.6696 L403.5 816.6696 L407.8846 816.891 L407.8846 816.891 L412.1397 817.5404 L412.1397 817.5404 L416.2458 818.5962 L416.2458 818.5962 L420.1826 820.037 L420.1826 820.037 L423.9282 821.8414 L423.9282 821.8414 L427.4622 823.9884 L427.4622 823.9884 L430.762 826.4559 L433.8058 829.2224 L433.8058 829.2224 L436.5726 832.2666 L439.0403 835.5665 L441.187 839.1002 L441.187 839.1002 L442.9915 842.846 L444.4322 846.7825 L445.4882 850.8891 L446.1375 855.1442 L446.3589 859.5285 L446.3323 860.055 L449.3285 860.2068 L449.3589 859.6044 L449.3628 859.5285 L449.3589 859.4526 L449.1299 854.9169 L449.126 854.8411 L449.1145 854.7659 L448.4423 850.3613 L448.4313 850.2885 L448.4124 850.2148 L447.3192 845.9636 L447.301 845.8922 L447.2748 845.8208 L445.7831 841.7451 L445.7578 841.676 L445.7258 841.6096 L443.8577 837.7318 L443.8268 837.6674 L443.7885 837.6044 L441.5665 833.9469 L441.5295 833.8859 L441.4854 833.8268 L438.9317 830.4118 L438.8889 830.3547 L438.8409 830.3019 L435.9778 827.1516 L435.9297 827.0988 L435.8769 827.0508 L432.7267 824.1877 L432.6739 824.1396 L432.6167 824.0969 L429.2017 821.5431 L429.1446 821.5002 L429.0816 821.4619 L425.424 819.2399 L425.3631 819.2028 L425.2967 819.1708 L421.4189 817.3027 L421.3526 817.2707 L421.2834 817.2454 L417.2077 815.7537 L417.1385 815.7282 L417.0649 815.7093 L412.8136 814.6161 L412.7423 814.5977 L412.6672 814.5862 L408.2626 813.9139 L408.1874 813.9024 L408.1115 813.8986 L403.5759 813.6696 L403.5 813.6657 Z" clip-path="url(#clipPath2)"/>
      <rect x="368.5742" y="803.7458" clip-path="url(#clipPath2)" fill="yellow" width="69.8516" height="22.8438" stroke="none" stroke-width="3"/>
      <rect stroke-linecap="square" x="368.5742" y="803.7458" clip-path="url(#clipPath2)" fill="none" width="69.8516" height="22.8438" stroke-miterlimit="1.6"/>
      <text x="370.5742" font-size="16px" y="821.2145" clip-path="url(#clipPath2)" font-family="sans-serif" stroke="none" xml:space="preserve">changed</text>
    </g>
    <g transform="matrix(1,0,0,1,43,-69)" fill-opacity="0.5176" fill="rgb(202,236,255)" text-rendering="geometricPrecision" shape-rendering="geometricPrecision" stroke="rgb(202,236,255)" stroke-opacity="0.5176">
      <rect x="507.3008" y="356.5352" clip-path="url(#clipPath2)" width="311.6992" rx="4" ry="4" height="433.4648" stroke="none"/>
    </g>
    <g fill="rgb(153,204,255)" text-rendering="geometricPrecision" shape-rendering="geometricPrecision" transform="matrix(1,0,0,1,43,-69)" stroke="rgb(153,204,255)">
      <rect x="507.3008" width="311.6992" height="29.9102" y="356.5352" clip-path="url(#clipPath2)" stroke="none"/>
    </g>
    <g font-size="22px" stroke-linecap="butt" transform="matrix(1,0,0,1,43,-69)" text-rendering="geometricPrecision" font-family="sans-serif" shape-rendering="geometricPrecision" stroke-miterlimit="1.45">
      <text x="605.4111" xml:space="preserve" y="379.8047" clip-path="url(#clipPath2)" stroke="none">Read Stack</text>
    </g>
    <g stroke-linecap="round" transform="matrix(1,0,0,1,43,-69)" stroke-dashoffset="2" fill="rgb(102,102,153)" text-rendering="geometricPrecision" shape-rendering="geometricPrecision" stroke-dasharray="0,4" stroke="rgb(102,102,153)" stroke-miterlimit="1.45">
      <rect x="507.3008" y="356.5352" clip-path="url(#clipPath2)" fill="none" width="311.6992" rx="4" ry="4" height="433.4648"/>
    </g>
    <g stroke-linecap="butt" transform="matrix(1,0,0,1,43,-69)" fill="red" text-rendering="geometricPrecision" shape-rendering="geometricPrecision" stroke="red" stroke-miterlimit="1.45">
      <path fill="none" d="M665.3769 789.9984 L659.2814 805.0619 L659.2814 805.0619 L664.0018 802.1632 L664.0018 802.1632 L665.046 903.8069 L665.046 903.8069 L501.483 902.9203 L501.4645 905.9203 L666.5524 906.8152 L668.0779 906.8268 L668.0615 905.2991 L667.0017 802.1324 L667.0017 802.1324 L671.7808 804.9334 L671.7808 804.9334 L665.3769 789.9984 Z" clip-path="url(#clipPath2)"/>
    </g>
    <g stroke-linecap="butt" transform="matrix(1,0,0,1,43,-69)" fill="red" text-rendering="geometricPrecision" shape-rendering="geometricPrecision" stroke="red" stroke-miterlimit="1.45">
      <path fill="none" d="M449.4901 312.4064 L434.5388 318.772 L449.5866 324.906 L446.7 320.1782 L446.7 320.1782 L662.495 318.5117 L662.495 318.5117 L662.495 318.5117 L662.495 318.5117 L662.495 318.5117 L662.495 318.5117 L662.369 356.5054 L665.369 356.5146 L665.5 317.0046 L665.507 315.4884 L663.9885 315.5 L446.6768 317.1782 L446.6768 317.1782 L449.4901 312.4064 Z" clip-path="url(#clipPath2)"/>
    </g>
    <g stroke-linecap="round" transform="matrix(1,0,0,1,43,-69)" stroke-dashoffset="2" text-rendering="geometricPrecision" shape-rendering="geometricPrecision" stroke-dasharray="0,4" stroke-miterlimit="1.45">
      <path fill="none" d="M506.739 683.9659 L404.4179 757.1868 L404.0055 757.4821 L404.0001 757.9893 L403.0604 849.3807 L398.4642 846.5583 L403.9501 860.1154 L409.7136 846.674 L405.0603 849.4012 L405.0603 849.4012 L405.9947 758.5179 L405.9947 758.5179 L507.9031 685.5922 L506.739 683.9659 Z" clip-path="url(#clipPath2)"/>
    </g>
    <g stroke-linecap="butt" transform="matrix(1,0,0,1,43,-69)" fill="yellow" text-rendering="geometricPrecision" shape-rendering="geometricPrecision" stroke="yellow" stroke-width="2" stroke-miterlimit="1.45">
      <rect x="399.1912" width="72.6123" height="20.4883" y="725.932" clip-path="url(#clipPath2)" stroke="none"/>
    </g>
    <g text-rendering="geometricPrecision" stroke-miterlimit="1.6" shape-rendering="geometricPrecision" transform="matrix(1,0,0,1,43,-69)">
      <rect fill="none" x="399.1912" width="72.6123" height="20.4883" y="725.932" clip-path="url(#clipPath2)"/>
    </g>
    <g font-size="14px" stroke-linecap="butt" transform="matrix(1,0,0,1,43,-69)" text-rendering="geometricPrecision" font-family="sans-serif" shape-rendering="geometricPrecision" stroke-miterlimit="1.45">
      <text x="401.1912" xml:space="preserve" y="741.4672" clip-path="url(#clipPath2)" stroke="none">onChange</text>
    </g>
    <g transform="matrix(1,0,0,1,43,-69)" fill-opacity="0.5176" fill="rgb(182,216,235)" text-rendering="geometricPrecision" shape-rendering="geometricPrecision" stroke="rgb(182,216,235)" stroke-opacity="0.5176">
      <rect x="542.5" y="680.4453" clip-path="url(#clipPath2)" width="223.5" rx="4" ry="4" height="94.5547" stroke="none"/>
    </g>
    <g fill="rgb(153,204,255)" text-rendering="geometricPrecision" shape-rendering="geometricPrecision" transform="matrix(1,0,0,1,43,-69)" stroke="rgb(153,204,255)">
      <rect x="542.5" width="223.5" height="27.5547" y="680.4453" clip-path="url(#clipPath2)" stroke="none"/>
    </g>
    <g font-size="20px" stroke-linecap="butt" transform="matrix(1,0,0,1,43,-69)" text-rendering="geometricPrecision" font-family="sans-serif" shape-rendering="geometricPrecision" stroke-miterlimit="1.45">
      <text x="602.7314" xml:space="preserve" y="701.7812" clip-path="url(#clipPath2)" stroke="none">Repository</text>
    </g>
    <g stroke-linecap="round" transform="matrix(1,0,0,1,43,-69)" stroke-dashoffset="2" fill="rgb(102,102,153)" text-rendering="geometricPrecision" shape-rendering="geometricPrecision" stroke-dasharray="0,4" stroke="rgb(102,102,153)" stroke-miterlimit="1.45">
      <rect x="542.5" y="680.4453" clip-path="url(#clipPath2)" fill="none" width="223.5" rx="4" ry="4" height="94.5547"/>
    </g>
    <g fill="white" text-rendering="geometricPrecision" shape-rendering="geometricPrecision" transform="matrix(1,0,0,1,43,-69)" stroke="white">
      <rect x="671" y="723" clip-path="url(#clipPath2)" width="70" rx="4" ry="4" height="35" stroke="none"/>
    </g>
    <g text-rendering="geometricPrecision" stroke-miterlimit="1.45" shape-rendering="geometricPrecision" font-family="sans-serif" transform="matrix(1,0,0,1,43,-69)" stroke-linecap="butt">
      <text x="675.0889" xml:space="preserve" y="745.0352" clip-path="url(#clipPath2)" stroke="none">Repository</text>
      <rect x="671" y="723" clip-path="url(#clipPath2)" fill="none" width="70" rx="4" ry="4" height="35"/>
    </g>
    <g fill="white" text-rendering="geometricPrecision" shape-rendering="geometricPrecision" transform="matrix(1,0,0,1,43,-69)" stroke="white">
      <rect x="567.5" y="724" clip-path="url(#clipPath2)" width="70" rx="4" ry="4" height="35" stroke="none"/>
    </g>
    <g text-rendering="geometricPrecision" stroke-miterlimit="1.45" shape-rendering="geometricPrecision" font-family="sans-serif" transform="matrix(1,0,0,1,43,-69)" stroke-linecap="butt">
      <text x="571.5889" xml:space="preserve" y="746.0352" clip-path="url(#clipPath2)" stroke="none">Repository</text>
      <rect x="567.5" y="724" clip-path="url(#clipPath2)" fill="none" width="70" rx="4" ry="4" height="35"/>
    </g>
    <g transform="matrix(1,0,0,1,43,-69)" fill-opacity="0.5176" fill="rgb(182,216,235)" text-rendering="geometricPrecision" shape-rendering="geometricPrecision" stroke="rgb(182,216,235)" stroke-opacity="0.5176">
      <rect x="545.2402" y="556.9453" clip-path="url(#clipPath2)" width="223.2598" rx="4" ry="4" height="88.9615" stroke="none"/>
    </g>
    <g fill="rgb(153,204,255)" text-rendering="geometricPrecision" shape-rendering="geometricPrecision" transform="matrix(1,0,0,1,43,-69)" stroke="rgb(153,204,255)">
      <rect x="545.2402" width="223.2598" height="27.5547" y="556.9453" clip-path="url(#clipPath2)" stroke="none"/>
    </g>
    <g font-size="20px" stroke-linecap="butt" transform="matrix(1,0,0,1,43,-69)" text-rendering="geometricPrecision" font-family="sans-serif" shape-rendering="geometricPrecision" stroke-miterlimit="1.45">
      <text x="564.3213" xml:space="preserve" y="578.2812" clip-path="url(#clipPath2)" stroke="none">Read Domain(DTO)</text>
    </g>
    <g stroke-linecap="round" transform="matrix(1,0,0,1,43,-69)" stroke-dashoffset="2" fill="rgb(102,102,153)" text-rendering="geometricPrecision" shape-rendering="geometricPrecision" stroke-dasharray="0,4" stroke="rgb(102,102,153)" stroke-miterlimit="1.45">
      <rect x="545.2402" y="556.9453" clip-path="url(#clipPath2)" fill="none" width="223.2598" rx="4" ry="4" height="88.9615"/>
    </g>
    <g fill="white" text-rendering="geometricPrecision" shape-rendering="geometricPrecision" transform="matrix(1,0,0,1,43,-69)" stroke="white">
      <rect x="672.5" y="601.5" clip-path="url(#clipPath2)" width="56" rx="4" ry="4" height="28.4068" stroke="none"/>
    </g>
    <g text-rendering="geometricPrecision" stroke-miterlimit="1.45" shape-rendering="geometricPrecision" font-family="sans-serif" transform="matrix(1,0,0,1,43,-69)" stroke-linecap="butt">
      <text x="682.793" xml:space="preserve" y="620.2385" clip-path="url(#clipPath2)" stroke="none">Model</text>
      <rect x="672.5" y="601.5" clip-path="url(#clipPath2)" fill="none" width="56" rx="4" ry="4" height="28.4068"/>
    </g>
    <g fill="white" text-rendering="geometricPrecision" shape-rendering="geometricPrecision" transform="matrix(1,0,0,1,43,-69)" stroke="white">
      <rect x="580" y="600.5" clip-path="url(#clipPath2)" width="53" rx="4" ry="4" height="30.4068" stroke="none"/>
    </g>
    <g text-rendering="geometricPrecision" stroke-miterlimit="1.45" shape-rendering="geometricPrecision" font-family="sans-serif" transform="matrix(1,0,0,1,43,-69)" stroke-linecap="butt">
      <text x="588.793" xml:space="preserve" y="620.2385" clip-path="url(#clipPath2)" stroke="none">Model</text>
      <rect x="580" y="600.5" clip-path="url(#clipPath2)" fill="none" width="53" rx="4" ry="4" height="30.4068"/>
    </g>
    <g transform="matrix(1,0,0,1,43,-69)" fill-opacity="0.5176" fill="rgb(182,216,235)" text-rendering="geometricPrecision" shape-rendering="geometricPrecision" stroke="rgb(182,216,235)" stroke-opacity="0.5176">
      <rect x="545" y="416.4453" clip-path="url(#clipPath2)" width="223.6667" rx="4" ry="4" height="116.5547" stroke="none"/>
    </g>
    <g fill="rgb(153,204,255)" text-rendering="geometricPrecision" shape-rendering="geometricPrecision" transform="matrix(1,0,0,1,43,-69)" stroke="rgb(153,204,255)">
      <rect x="545" width="223.6667" height="27.5547" y="416.4453" clip-path="url(#clipPath2)" stroke="none"/>
    </g>
    <g font-size="20px" stroke-linecap="butt" transform="matrix(1,0,0,1,43,-69)" text-rendering="geometricPrecision" font-family="sans-serif" shape-rendering="geometricPrecision" stroke-miterlimit="1.45">
      <text x="601.9407" xml:space="preserve" y="437.7812" clip-path="url(#clipPath2)" stroke="none">StoreGroup</text>
    </g>
    <g stroke-linecap="round" transform="matrix(1,0,0,1,43,-69)" stroke-dashoffset="2" fill="rgb(102,102,153)" text-rendering="geometricPrecision" shape-rendering="geometricPrecision" stroke-dasharray="0,4" stroke="rgb(102,102,153)" stroke-miterlimit="1.45">
      <rect x="545" y="416.4453" clip-path="url(#clipPath2)" fill="none" width="223.6667" rx="4" ry="4" height="116.5547"/>
    </g>
    <g fill="white" text-rendering="geometricPrecision" shape-rendering="geometricPrecision" transform="matrix(1,0,0,1,43,-69)" stroke="white">
      <rect x="567" y="463" clip-path="url(#clipPath2)" width="76" rx="4" ry="4" height="53" stroke="none"/>
    </g>
    <g text-rendering="geometricPrecision" stroke-miterlimit="1.45" shape-rendering="geometricPrecision" font-family="sans-serif" transform="matrix(1,0,0,1,43,-69)" stroke-linecap="butt">
      <text x="590.041" xml:space="preserve" y="494.0352" clip-path="url(#clipPath2)" stroke="none">Store</text>
      <rect x="567" y="463" clip-path="url(#clipPath2)" fill="none" width="76" rx="4" ry="4" height="53"/>
    </g>
    <g fill="white" text-rendering="geometricPrecision" shape-rendering="geometricPrecision" transform="matrix(1,0,0,1,43,-69)" stroke="white">
      <rect x="675.6667" y="465" clip-path="url(#clipPath2)" width="76" rx="4" ry="4" height="53" stroke="none"/>
    </g>
    <g text-rendering="geometricPrecision" stroke-miterlimit="1.45" shape-rendering="geometricPrecision" font-family="sans-serif" transform="matrix(1,0,0,1,43,-69)" stroke-linecap="butt">
      <text x="698.7077" xml:space="preserve" y="496.0352" clip-path="url(#clipPath2)" stroke="none">Store</text>
      <rect x="675.6667" y="465" clip-path="url(#clipPath2)" fill="none" width="76" rx="4" ry="4" height="53"/>
    </g>
    <g stroke-linecap="butt" transform="matrix(1,0,0,1,43,-69)" fill="rgb(51,153,102)" text-rendering="geometricPrecision" shape-rendering="geometricPrecision" stroke-dasharray="6,2" stroke="rgb(51,153,102)" stroke-miterlimit="1.45">
      <path fill="none" d="M527.0762 466.3689 L530.0433 471.3885 L530.0433 471.3885 L311.0873 469.9481 L311.0566 474.948 L530.0104 476.3884 L530.0104 476.3884 L526.9775 481.3686 L545.0265 473.9871 L527.0762 466.3689 Z" clip-path="url(#clipPath2)"/>
    </g>
    <g stroke-linecap="butt" transform="matrix(1,0,0,1,43,-69)" fill="rgb(204,255,204)" text-rendering="geometricPrecision" shape-rendering="geometricPrecision" stroke="rgb(204,255,204)" stroke-width="5" stroke-miterlimit="1.45">
      <rect x="316.0834" width="190.123" height="27.5547" y="489.3297" clip-path="url(#clipPath2)" stroke="none"/>
    </g>
    <g text-rendering="geometricPrecision" stroke-miterlimit="1.6" shape-rendering="geometricPrecision" transform="matrix(1,0,0,1,43,-69)">
      <rect fill="none" x="316.0834" width="190.123" height="27.5547" y="489.3297" clip-path="url(#clipPath2)"/>
    </g>
    <g font-size="20px" stroke-linecap="butt" transform="matrix(1,0,0,1,43,-69)" text-rendering="geometricPrecision" font-family="sans-serif" shape-rendering="geometricPrecision" stroke-miterlimit="1.45">
      <text x="318.0834" xml:space="preserve" y="510.6656" clip-path="url(#clipPath2)" stroke="none">State Change Event</text>
    </g>
  </g>
</svg>
